# xmcd
#
# Track frame offsets: 
#        150
#        14827
#        30388
#        48759
#        64134
#        81467
#        101225
#        119448
#        136195
#        152360
#
# Disc length: 2196 seconds
#
# Revision: 1
# Processed by: cddbd v1.5.2PL0 Copyright (c) Steve Scherf et al.
# Submitted via: ExactAudioCopy v0.99pb5
#
DISCID=7f08920a
DTITLE=Chris Hillman - Slippin' Away
DYEAR=1900
DGENRE=Rock
TTITLE0=Step On Out
TTITLE1=Slippin' Away
TTITLE2=Falling Again
TTITLE3=Take It On The Run
TTITLE4=Blue Morning
TTITLE5=Witching Hour
TTITLE6=Down In The Churchyard
TTITLE7=Love Is The Sweetest Amnesty
TTITLE8=Midnight Again
TTITLE9=(Take Me In Your) Lifeboat
EXTD=
EXTT0=
EXTT1=
EXTT2=
EXTT3=
EXTT4=
EXTT5=
EXTT6=
EXTT7=
EXTT8=
EXTT9=
PLAYORDER=
